<?xml version="1.0" encoding="UTF-8"?>
<svg width="512px" height="512px" viewBox="0 0 512 512" version="1.1" xmlns="http://www.w3.org/2000/svg" xmlns:xlink="http://www.w3.org/1999/xlink">
    <title>GO-PWA-Icon</title>
    <g id="GO-PWA-Icon" stroke="none" stroke-width="1" fill="none" fill-rule="evenodd">
        <rect id="Rectangle" fill="#FFFFFF" x="0" y="0" width="512" height="362"></rect>
        <rect id="Rectangle" fill="#00D530" x="0" y="362" width="512" height="150"></rect>
        <g id="Group" transform="translate(82, 121)">
            <path d="M347.395088,58.0440588 C346.317923,50.0059027 343.759874,42.1855119 339.886258,35.0654546 C332.229513,20.9873575 319.533237,9.89351732 304.541679,4.25426471 C297.05199,1.43550947 289.064613,0 281.063314,0 C262.436542,0 244.385766,7.98066611 231.78694,21.7085965 C210.927531,-1.174191 176.016254,-6.55560938 149.224608,8.95625507 C142.229127,13.0066914 135.980179,18.3288776 130.857121,24.5830997 C118.122562,10.6339197 100.338031,1.77522348 81.5041789,0.247381486 C64.8768611,-1.10276395 48.0424633,3.1846011 34.1002268,12.3551373 C20.7479077,21.1389222 10.3295141,34.1456136 4.73138944,49.133099 C-1.08773672,64.7146483 -1.55236192,82.1358798 3.41060094,98.011848 C8.16996399,113.232778 17.8296438,126.734232 30.628589,136.218351 C43.9060808,146.057862 60.2567116,151.284232 76.7709184,150.988071 C82.5482804,150.885285 88.4213519,150.282511 94.024697,148.866165 C95.7265826,148.434118 97.3553811,147.921934 98.8919506,147.254701 C96.8594328,148.075241 94.6407169,148.531677 92.3158508,148.531677 C82.5970052,148.531677 74.7175186,140.643343 74.7175186,130.913586 C74.7175186,122.175096 81.0760972,114.924379 89.4132484,113.539392 C87.2188949,113.832068 85.0436832,114.368642 82.7135965,114.795462 C73.9831671,116.391247 64.8263962,115.436564 56.9434293,111.353027 C42.2564003,103.743433 33.5259709,87.4754872 35.3548889,71.0124235 C37.1629248,54.7305406 49.1405101,40.7970397 64.9360269,36.5392908 C73.6212119,34.1978773 83.0181262,34.8581419 91.2578278,38.4887266 C100.075266,42.3736612 107.439662,49.7219366 112.338239,57.9517263 C113.566798,60.0161422 114.623081,62.1833434 115.482725,64.427198 C116.333668,66.6518893 116.838317,68.9811079 117.992049,71.0803663 C120.308214,75.2875937 124.334966,78.4338681 128.981218,79.6411594 C138.162351,82.0243839 147.256476,76.5802491 150.080771,67.709358 C150.860367,65.261675 150.961297,62.7686968 151.485087,60.2687501 C152.400417,55.9029895 154.255437,51.75151 156.893534,48.1557679 C162.087939,41.0757794 170.172766,36.3790154 178.887534,35.3720683 C195.60534,33.4400537 211.270344,45.4641876 213.828393,62.1136585 C214.501839,66.4863876 215.163103,70.3713222 218.119651,73.8973794 C221.231073,77.6081017 225.82686,79.9024779 230.661051,80.1498594 C235.592691,80.4007251 240.479086,78.531427 243.975086,75.036728 C247.211801,71.798121 248.623078,67.7825272 249.146869,63.3348868 C251.134143,46.4240975 266.922699,33.8337735 283.7919,35.2745094 C300.506226,36.7030504 313.176399,51.5581344 312.511654,68.3208433 C312.435087,70.2650527 312.335897,72.0925399 312.388102,73.8869267 C312.408984,64.1188422 320.325014,56.2061189 330.087364,56.2061189 C339.863635,56.2061189 347.786626,64.1397477 347.786626,73.9252534 C347.786626,73.9513852 347.784886,73.975775 347.784886,74.0001647 C347.844052,73.2876363 347.887556,72.5681395 347.917139,71.8416741 C348.098116,67.2372427 348.007628,62.61539 347.395088,58.0440588" id="Fill-42" fill="#FFDD00"></path>
            <path d="M348,69.9991152 C348,79.9410117 339.941012,88 330.000885,88 C320.058988,88 312,79.9410117 312,69.9991152 C312,60.0589883 320.058988,52 330.000885,52 C339.941012,52 348,60.0589883 348,69.9991152" id="Fill-44" fill="#000000"></path>
            <path d="M110,129 C110,138.94067 101.942052,147 91.99911,147 C82.0579481,147 74,138.94067 74,129 C74,119.05933 82.0579481,111 91.99911,111 C101.942052,111 110,119.05933 110,129" id="Fill-46" fill="#000000"></path>
        </g>
        <g id="GO" transform="translate(185.5199, 403.6506)" fill="#FFFFFF" fill-rule="nonzero">
            <path d="M42.7627841,22.5 C42.4857955,21.3707386 42.0490057,20.3746449 41.4524148,19.5117188 C40.8558239,18.6487926 40.1154119,17.9137074 39.231179,17.3064631 C38.346946,16.6992188 37.3242188,16.2411222 36.1629972,15.9321733 C35.0017756,15.6232244 33.7286932,15.46875 32.34375,15.46875 C29.3607955,15.46875 26.8199574,16.1825284 24.7212358,17.6100852 C22.6225142,19.037642 21.0245028,21.09375 19.9272017,23.7784091 C18.8299006,26.4630682 18.28125,29.7017045 18.28125,33.4943182 C18.28125,37.3295455 18.803267,40.6107955 19.8473011,43.3380682 C20.8913352,46.0653409 22.446733,48.1534091 24.5134943,49.6022727 C26.5802557,51.0511364 29.1477273,51.7755682 32.2159091,51.7755682 C34.921875,51.7755682 37.175071,51.381392 38.9754972,50.5930398 C40.7759233,49.8046875 42.1235795,48.6860795 43.0184659,47.2372159 C43.9133523,45.7883523 44.3607955,44.0838068 44.3607955,42.1235795 L47.4289773,42.4431818 L32.4715909,42.4431818 L32.4715909,29.7869318 L61.4914773,29.7869318 L61.4914773,38.8636364 C61.4914773,44.8295455 60.2290483,49.9272017 57.7041903,54.1566051 C55.1793324,58.3860085 51.706321,61.6246449 47.2851562,63.8725142 C42.8639915,66.1203835 37.7982955,67.2443182 32.0880682,67.2443182 C25.7173295,67.2443182 20.1242898,65.8913352 15.3089489,63.1853693 C10.493608,60.4794034 6.73828125,56.6228693 4.04296875,51.615767 C1.34765625,46.6086648 0,40.6534091 0,33.75 C0,28.3380682 0.825639205,23.5440341 2.47691761,19.3678977 C4.12819602,15.1917614 6.42400568,11.6601562 9.36434659,8.77308239 C12.3046875,5.88600852 15.703125,3.70205966 19.5596591,2.2212358 C23.4161932,0.740411932 27.5497159,0 31.9602273,0 C35.8380682,0 39.4442472,0.548650568 42.7787642,1.6459517 C46.1132812,2.74325284 49.0642756,4.29865057 51.6317472,6.31214489 C54.1992188,8.3256392 56.2713068,10.7066761 57.8480114,13.4552557 C59.4247159,16.2038352 60.3835227,19.21875 60.7244318,22.5 L42.7627841,22.5 Z" id="Path"></path>
            <path d="M136.585227,33.6221591 C136.585227,40.9090909 135.168324,47.0507812 132.334517,52.0472301 C129.50071,57.043679 125.676136,60.8256392 120.860795,63.3931108 C116.045455,65.9605824 110.676136,67.2443182 104.752841,67.2443182 C98.7869318,67.2443182 93.4016335,65.949929 88.596946,63.3611506 C83.7922585,60.7723722 79.9783381,56.9797585 77.1551847,51.9833097 C74.3320312,46.9868608 72.9204545,40.8664773 72.9204545,33.6221591 C72.9204545,26.3352273 74.3320312,20.1935369 77.1551847,15.1970881 C79.9783381,10.2006392 83.7922585,6.41867898 88.596946,3.85120739 C93.4016335,1.2837358 98.7869318,0 104.752841,0 C110.676136,0 116.045455,1.2837358 120.860795,3.85120739 C125.676136,6.41867898 129.50071,10.2006392 132.334517,15.1970881 C135.168324,20.1935369 136.585227,26.3352273 136.585227,33.6221591 Z M118.303977,33.6221591 C118.303977,29.7017045 117.787287,26.393821 116.753906,23.6985085 C115.720526,21.003196 114.197088,18.9577415 112.183594,17.5621449 C110.170099,16.1665483 107.693182,15.46875 104.752841,15.46875 C101.8125,15.46875 99.3355824,16.1665483 97.3220881,17.5621449 C95.3085937,18.9577415 93.7851562,21.003196 92.7517756,23.6985085 C91.7183949,26.393821 91.2017045,29.7017045 91.2017045,33.6221591 C91.2017045,37.5426136 91.7183949,40.8504972 92.7517756,43.5458097 C93.7851562,46.2411222 95.3085937,48.2865767 97.3220881,49.6821733 C99.3355824,51.0777699 101.8125,51.7755682 104.752841,51.7755682 C107.693182,51.7755682 110.170099,51.0777699 112.183594,49.6821733 C114.197088,48.2865767 115.720526,46.2411222 116.753906,43.5458097 C117.787287,40.8504972 118.303977,37.5426136 118.303977,33.6221591 Z" id="Shape"></path>
        </g>
    </g>
</svg>