<?xml version="1.0" encoding="UTF-8"?>
<svg width="85px" height="50px" viewBox="0 0 85 50" version="1.1" xmlns="http://www.w3.org/2000/svg" xmlns:xlink="http://www.w3.org/1999/xlink">
    <title>appicon</title>
    <g id="appicon" stroke="none" stroke-width="1" fill="none" fill-rule="evenodd">
        <rect id="Rectangle" fill="none" x="0" y="0" width="85" height="50"></rect>
        <g id="Group" transform="translate(12.000000, 12.000000)">
            <path d="M57.5920239,9.60994352 C57.4134488,8.27912296 56.9893691,6.98435627 56.3471912,5.80553884 C55.077837,3.47472806 52.9730168,1.63799956 50.4876788,0.704348462 C49.2460196,0.237667131 47.9218523,0 46.5953771,0 C43.5073843,0 40.5148816,1.32130234 38.4262169,3.59413849 C34.968092,-0.194402483 29.1804135,-1.08536579 24.7388275,1.48282369 C23.5790993,2.15342572 22.5431331,3.03458238 21.6938197,4.07004961 C19.5826528,1.76058272 16.634289,0.293911172 13.511966,0.0409571997 C10.7554478,-0.182576813 7.96459935,0.527251838 5.65322063,2.04555254 C3.43963988,3.49982156 1.7124526,5.65324728 0.784381539,8.13461903 C-0.180327705,10.7143458 -0.25735443,13.5986556 0.565417927,16.2271271 C1.354437,18.7471486 2.95584281,20.9824888 5.07768386,22.552707 C7.27885956,24.1817652 9.9895079,25.0470582 12.7272743,24.9980249 C13.6850598,24.9810075 14.6587122,24.8812104 15.5876487,24.646716 C15.8697915,24.5751851 16.1398178,24.4903864 16.3945541,24.3799173 C16.0575983,24.5157683 15.689774,24.5913372 15.3043519,24.5913372 C13.6931375,24.5913372 12.3868565,23.2853217 12.3868565,21.6744347 C12.3868565,20.2276649 13.4409975,19.0272151 14.8231513,18.7979125 C14.4593659,18.8463689 14.0987539,18.9352057 13.7124663,19.0058712 C12.2651139,19.270074 10.7470816,19.1120138 9.44022369,18.4359316 C7.00537141,17.1760651 5.55801905,14.4826966 5.86122163,11.7570238 C6.16096233,9.06134779 8.14663629,6.75447678 10.7652564,6.04955145 C12.2051081,5.66190021 13.7629519,5.77121555 15.1289502,6.37230572 C16.5907271,7.01550682 17.8116151,8.23210871 18.6237133,9.59465667 C18.827387,9.93644739 19.0025002,10.2952555 19.145014,10.6667546 C19.2860855,11.035081 19.3697474,11.4207132 19.5610161,11.7682726 C19.9449957,12.4648334 20.6125607,12.9857397 21.3828279,13.1856224 C22.9048991,13.580196 24.4125458,12.6788492 24.8807644,11.2101586 C25.0100077,10.8049131 25.0267401,10.3921683 25.1135755,9.97826988 C25.265321,9.25546184 25.572851,8.5681308 26.0102012,7.97280925 C26.8713427,6.80062573 28.2116654,6.0230158 29.6564213,5.85630269 C32.427941,5.53643273 35.0249244,7.52718338 35.4490041,10.2837183 C35.5606496,11.0076801 35.6702757,11.6508812 36.1604195,12.2346655 C36.6762389,12.8490235 37.43814,13.2288871 38.2395641,13.2698443 C39.0571437,13.3113783 39.8672225,13.0018919 40.4467981,12.4232993 C40.9833888,11.8871061 41.2173538,11.2222727 41.3041892,10.4859084 C41.6336443,7.68610885 44.2511105,5.60161814 47.0477288,5.84015056 C49.8186714,6.07666397 51.9191643,8.53611496 51.8089612,11.3113979 C51.7962677,11.6332869 51.7798238,11.935851 51.7884785,12.2329349 C51.7919403,10.6157024 53.1042796,9.30564883 54.7227063,9.30564883 C56.3434409,9.30564883 57.656934,10.6191635 57.656934,12.2392804 C57.656934,12.2436068 57.6566456,12.2476449 57.6566456,12.2516829 C57.6664542,12.1337146 57.6736664,12.0145926 57.6785708,11.8943169 C57.7085737,11.1319938 57.6935722,10.3667864 57.5920239,9.60994352" id="Fill-42" fill="#FFDD00"></path>
            <path d="M57.8461538,11.9998525 C57.8461538,13.6568353 56.5029891,15 54.8463013,15 C53.1893186,15 51.8461538,13.6568353 51.8461538,11.9998525 C51.8461538,10.3431647 53.1893186,9 54.8463013,9 C56.5029891,9 57.8461538,10.3431647 57.8461538,11.9998525" id="Fill-44" fill="#000000"></path>
            <path d="M17.8461538,22 C17.8461538,23.6567784 16.5031625,25 14.8460055,25 C13.1891452,25 11.8461538,23.6567784 11.8461538,22 C11.8461538,20.3432216 13.1891452,19 14.8460055,19 C16.5031625,19 17.8461538,20.3432216 17.8461538,22" id="Fill-46" fill="#000000"></path>
        </g>
    </g>
</svg>