<?xml version="1.0" standalone="no"?>
<!DOCTYPE svg PUBLIC "-//W3C//DTD SVG 20010904//EN"
 "http://www.w3.org/TR/2001/REC-SVG-20010904/DTD/svg10.dtd">
<svg version="1.0" xmlns="http://www.w3.org/2000/svg"
 width="600.000000pt" height="600.000000pt" viewBox="0 0 600.000000 600.000000"
 preserveAspectRatio="xMidYMid meet">
<metadata>
Created by potrace 1.14, written by Peter Selinger 2001-2017
</metadata>
<g transform="translate(0.000000,600.000000) scale(0.100000,-0.100000)"
fill="#000000" stroke="none">
<path d="M1115 4275 c-149 -23 -269 -61 -400 -127 -246 -122 -452 -330 -579
-584 -43 -87 -91 -217 -102 -277 -2 -17 -7 -33 -9 -37 -25 -40 -26 -390 -1
-508 30 -141 88 -293 158 -412 77 -131 235 -305 358 -392 128 -91 356 -194
474 -214 17 -2 39 -7 48 -10 48 -14 298 -25 372 -16 l40 5 -46 23 c-61 31
-122 95 -156 163 -24 49 -27 68 -27 151 0 84 3 101 28 147 15 29 40 67 56 85
l29 33 -97 2 c-173 4 -326 71 -449 195 -60 61 -79 87 -127 173 -22 39 -53 121
-61 160 -2 11 -6 32 -10 48 -7 36 -7 173 1 217 26 148 95 279 198 381 271 268
689 270 967 7 102 -96 179 -215 221 -337 57 -165 180 -253 331 -237 71 7 120
31 177 86 53 51 76 103 97 210 20 106 37 149 91 233 73 111 195 195 329 226
180 42 370 -14 505 -148 84 -84 132 -179 159 -314 28 -140 61 -196 146 -249
124 -77 280 -55 381 54 39 43 66 104 78 178 34 201 130 339 300 431 242 131
561 45 707 -191 39 -63 78 -161 78 -196 0 -13 2 -24 4 -24 3 0 30 25 60 55
146 146 362 143 508 -7 l49 -50 -5 53 c-3 30 -10 69 -15 87 -5 18 -10 36 -10
40 -2 65 -78 249 -152 369 -103 165 -307 343 -485 424 -68 31 -171 68 -209 75
-11 2 -53 10 -93 17 -83 16 -265 20 -332 7 -25 -4 -61 -11 -81 -14 -171 -26
-419 -155 -562 -291 l-59 -55 -66 61 c-209 193 -477 298 -771 304 -307 6 -587
-106 -812 -324 -48 -46 -91 -82 -95 -81 -5 1 -38 29 -74 62 -99 92 -174 143
-315 215 -103 53 -211 88 -360 118 -62 13 -312 13 -390 0z"/>
<path d="M5649 3319 c-224 -33 -334 -298 -200 -481 138 -187 427 -154 524 61
30 65 29 178 -2 243 -60 124 -191 196 -322 177z"/>
<path d="M1495 2322 c-211 -73 -272 -332 -117 -495 139 -145 381 -111 482 67
16 30 22 50 35 126 5 28 -16 123 -35 161 -11 20 -41 56 -69 81 -82 74 -191 96
-296 60z"/>
</g>
</svg>
