<?xml version="1.0" standalone="no"?>
<!DOCTYPE svg PUBLIC "-//W3C//DTD SVG 20010904//EN"
 "http://www.w3.org/TR/2001/REC-SVG-20010904/DTD/svg10.dtd">
<svg version="1.0" xmlns="http://www.w3.org/2000/svg"
 width="1500.000000pt" height="1500.000000pt" viewBox="0 0 1500.000000 1500.000000"
 preserveAspectRatio="xMidYMid meet">
<metadata>
Created by potrace 1.14, written by Peter Selinger 2001-2017
</metadata>
<g transform="translate(0.000000,1500.000000) scale(0.100000,-0.100000)"
fill="#000000" stroke="none">
<path d="M10132 10305 c269 -361 416 -748 459 -1209 14 -157 6 -498 -15 -644
-67 -448 -233 -856 -478 -1174 -193 -250 -433 -454 -731 -620 -75 -42 -107
-65 -103 -74 3 -8 356 -639 784 -1402 429 -763 784 -1397 791 -1410 l12 -22
-1301 0 -1300 0 -625 1250 -625 1250 -250 0 -250 0 0 -1250 0 -1250 -1177 0
-1178 0 1875 -1875 1875 -1875 3552 0 3553 0 0 2728 0 2727 -2456 2455 c-1351
1350 -2437 2428 -2412 2395z"/>
<path d="M6500 8675 l0 -826 578 4 c548 3 581 5 657 24 105 28 164 54 246 109
264 175 378 548 283 923 -73 290 -261 486 -539 563 -77 21 -99 22 -652 26
l-573 3 0 -826z"/>
</g>
</svg>
